HIERARCHY
ROOT Hips
{
  OFFSET -350.944 86.4296 1532.92
  CHANNELS 6 Xposition Yposition Zposition Zrotation Xrotation Yrotation
  JOINT Spine
  {
    OFFSET -3.49054e-05 8 7.08629e-05
    CHANNELS 6 Xposition Yposition Zposition Zrotation Xrotation Yrotation
    JOINT Spine1
    {
      OFFSET -0.00113886 7.99999 -0.000900708
      CHANNELS 6 Xposition Yposition Zposition Zrotation Xrotation Yrotation
      JOINT Spine2
      {
        OFFSET 0.00028528 7.99999 -1.39751e-05
        CHANNELS 6 Xposition Yposition Zposition Zrotation Xrotation Yrotation
        JOINT Spine3
        {
          OFFSET 0 8 0
          CHANNELS 6 Xposition Yposition Zposition Zrotation Xrotation Yrotation
          JOINT Neck
          {
            OFFSET -3.78642e-05 17 8.95254e-05
            CHANNELS 6 Xposition Yposition Zposition Zrotation Xrotation Yrotation
            JOINT Head
            {
              OFFSET 0.000217081 10.8 -7.67038e-05
              CHANNELS 6 Xposition Yposition Zposition Zrotation Xrotation Yrotation
              End Site
              {
                OFFSET 0 20.25 0
              }
            }
          }
          JOINT LeftShoulder
          {
            OFFSET 4.99997 17 0.000189593
            CHANNELS 6 Xposition Yposition Zposition Zrotation Xrotation Yrotation
            JOINT LeftShoulder2
            {
              OFFSET 6.45 0 0
              CHANNELS 6 Xposition Yposition Zposition Zrotation Xrotation Yrotation
              JOINT LeftArm
              {
                OFFSET 6.44997 -3.15049e-05 -0.000108017
                CHANNELS 6 Xposition Yposition Zposition Zrotation Xrotation Yrotation
                JOINT LeftForeArm
                {
                  OFFSET 0.00655277 -32.4124 -2.00945
                  CHANNELS 6 Xposition Yposition Zposition Zrotation Xrotation Yrotation
                  JOINT LeftHand
                  {
                    OFFSET 0.000186497 -25.6504 1.99932
                    CHANNELS 6 Xposition Yposition Zposition Zrotation Xrotation Yrotation
                    JOINT LeftHandThumb1
                    {
                      OFFSET -0.496396 -1.49705 2.6451
                      CHANNELS 6 Xposition Yposition Zposition Zrotation Xrotation Yrotation
                      JOINT LeftHandThumb2
                      {
                        OFFSET 0.000933155 -3.79831 3.69406
                        CHANNELS 6 Xposition Yposition Zposition Zrotation Xrotation Yrotation
                        JOINT LeftHandThumb3
                        {
                          OFFSET 0.000913582 -3.00151 2.70108
                          CHANNELS 6 Xposition Yposition Zposition Zrotation Xrotation Yrotation
                          End Site
                          {
                            OFFSET -9.95606e-05 -2.30045 1.80005
                          }
                        }
                      }
                    }
                    JOINT LeftHandIndex
                    {
                      OFFSET 0.000221618 -1.89989 1.59998
                      CHANNELS 6 Xposition Yposition Zposition Zrotation Xrotation Yrotation
                      JOINT LeftHandIndex1
                      {
                        OFFSET -0.0107515 -8.31305 1.92276
                        CHANNELS 6 Xposition Yposition Zposition Zrotation Xrotation Yrotation
                        JOINT LeftHandIndex2
                        {
                          OFFSET -1.51889e-05 -4.49995 -0.000390548
                          CHANNELS 6 Xposition Yposition Zposition Zrotation Xrotation Yrotation
                          JOINT LeftHandIndex3
                          {
                            OFFSET -0.000118353 -3.39932 -0.00192124
                            CHANNELS 6 Xposition Yposition Zposition Zrotation Xrotation Yrotation
                            End Site
                            {
                              OFFSET -0.000676592 -2.60012 0.00179461
                            }
                          }
                        }
                      }
                    }
                    JOINT LeftHandMiddle
                    {
                      OFFSET -0.244884 -2.19458 0.390629
                      CHANNELS 6 Xposition Yposition Zposition Zrotation Xrotation Yrotation
                      JOINT LeftHandMiddle1
                      {
                        OFFSET -0.000418337 -8.2995 0.998938
                        CHANNELS 6 Xposition Yposition Zposition Zrotation Xrotation Yrotation
                        JOINT LeftHandMiddle2
                        {
                          OFFSET 0.00227895 -4.64752 -0.00259763
                          CHANNELS 6 Xposition Yposition Zposition Zrotation Xrotation Yrotation
                          JOINT LeftHandMiddle3
                          {
                            OFFSET -0.0015662 -3.29879 -0.000559424
                            CHANNELS 6 Xposition Yposition Zposition Zrotation Xrotation Yrotation
                            End Site
                            {
                              OFFSET -0.000162438 -2.70024 5.34274e-05
                            }
                          }
                        }
                      }
                    }
                    JOINT LeftHandRing
                    {
                      OFFSET -0.500566 -2.15052 -0.79961
                      CHANNELS 6 Xposition Yposition Zposition Zrotation Xrotation Yrotation
                      JOINT LeftHandRing1
                      {
                        OFFSET 0.0010896 -7.74988 -0.199677
                        CHANNELS 6 Xposition Yposition Zposition Zrotation Xrotation Yrotation
                        JOINT LeftHandRing2
                        {
                          OFFSET -0.00335399 -3.80233 0.00521164
                          CHANNELS 6 Xposition Yposition Zposition Zrotation Xrotation Yrotation
                          JOINT LeftHandRing3
                          {
                            OFFSET 0.000100343 -3.40011 -0.000144197
                            CHANNELS 6 Xposition Yposition Zposition Zrotation Xrotation Yrotation
                            End Site
                            {
                              OFFSET 0.00461671 -2.59986 -0.00318908
                            }
                          }
                        }
                      }
                    }
                    JOINT LeftHandPinky
                    {
                      OFFSET -0.755093 -1.75284 -1.84463
                      CHANNELS 6 Xposition Yposition Zposition Zrotation Xrotation Yrotation
                      JOINT LeftHandPinky1
                      {
                        OFFSET 0.00322953 -7.14998 -0.998499
                        CHANNELS 6 Xposition Yposition Zposition Zrotation Xrotation Yrotation
                        JOINT LeftHandPinky2
                        {
                          OFFSET -5.13871e-05 -3.00006 0.000158468
                          CHANNELS 6 Xposition Yposition Zposition Zrotation Xrotation Yrotation
                          JOINT LeftHandPinky3
                          {
                            OFFSET -0.000836976 -2.35033 0.000815698
                            CHANNELS 6 Xposition Yposition Zposition Zrotation Xrotation Yrotation
                            End Site
                            {
                              OFFSET 0.000260429 -2.1001 0.000112587
                            }
                          }
                        }
                      }
                    }
                  }
                }
              }
            }
          }
          JOINT RightShoulder
          {
            OFFSET -5.00002 17 0
            CHANNELS 6 Xposition Yposition Zposition Zrotation Xrotation Yrotation
            JOINT RightShoulder2
            {
              OFFSET -6.45 0 0
              CHANNELS 6 Xposition Yposition Zposition Zrotation Xrotation Yrotation
              JOINT RightArm
              {
                OFFSET -6.44997 0.000896597 -0.000910356
                CHANNELS 6 Xposition Yposition Zposition Zrotation Xrotation Yrotation
                JOINT RightForeArm
                {
                  OFFSET 0.000359834 -32.3937 -1.9957
                  CHANNELS 6 Xposition Yposition Zposition Zrotation Xrotation Yrotation
                  JOINT RightHand
                  {
                    OFFSET -0.001246 -25.6527 1.99437
                    CHANNELS 6 Xposition Yposition Zposition Zrotation Xrotation Yrotation
                    JOINT RightHandThumb1
                    {
                      OFFSET 0.500677 -1.50016 2.65018
                      CHANNELS 6 Xposition Yposition Zposition Zrotation Xrotation Yrotation
                      JOINT RightHandThumb2
                      {
                        OFFSET 0.000759381 -3.79888 3.70267
                        CHANNELS 6 Xposition Yposition Zposition Zrotation Xrotation Yrotation
                        JOINT RightHandThumb3
                        {
                          OFFSET 0.000582516 -3.00008 2.69912
                          CHANNELS 6 Xposition Yposition Zposition Zrotation Xrotation Yrotation
                          End Site
                          {
                            OFFSET -0.000459201 -2.29954 1.80015
                          }
                        }
                      }
                    }
                    JOINT RightHandIndex
                    {
                      OFFSET 0.00123282 -1.90029 1.60092
                      CHANNELS 6 Xposition Yposition Zposition Zrotation Xrotation Yrotation
                      JOINT RightHandIndex1
                      {
                        OFFSET 0.00427961 -8.30121 1.90179
                        CHANNELS 6 Xposition Yposition Zposition Zrotation Xrotation Yrotation
                        JOINT RightHandIndex2
                        {
                          OFFSET 0.00360244 -4.49916 -0.00055256
                          CHANNELS 6 Xposition Yposition Zposition Zrotation Xrotation Yrotation
                          JOINT RightHandIndex3
                          {
                            OFFSET -0.00104811 -3.40443 0.00396049
                            CHANNELS 6 Xposition Yposition Zposition Zrotation Xrotation Yrotation
                            End Site
                            {
                              OFFSET 0.000626625 -2.60278 -0.00282818
                            }
                          }
                        }
                      }
                    }
                    JOINT RightHandMiddle
                    {
                      OFFSET 0.246551 -2.19944 0.395542
                      CHANNELS 6 Xposition Yposition Zposition Zrotation Xrotation Yrotation
                      JOINT RightHandMiddle1
                      {
                        OFFSET -0.000811159 -8.29966 0.999635
                        CHANNELS 6 Xposition Yposition Zposition Zrotation Xrotation Yrotation
                        JOINT RightHandMiddle2
                        {
                          OFFSET -0.00278418 -4.64976 -0.00133566
                          CHANNELS 6 Xposition Yposition Zposition Zrotation Xrotation Yrotation
                          JOINT RightHandMiddle3
                          {
                            OFFSET -0.00179517 -3.30359 0.00209203
                            CHANNELS 6 Xposition Yposition Zposition Zrotation Xrotation Yrotation
                            End Site
                            {
                              OFFSET -0.0136883 -2.69159 0.00920651
                            }
                          }
                        }
                      }
                    }
                    JOINT RightHandRing
                    {
                      OFFSET 0.49966 -2.14987 -0.799627
                      CHANNELS 6 Xposition Yposition Zposition Zrotation Xrotation Yrotation
                      JOINT RightHandRing1
                      {
                        OFFSET -0.00127484 -7.74954 -0.201054
                        CHANNELS 6 Xposition Yposition Zposition Zrotation Xrotation Yrotation
                        JOINT RightHandRing2
                        {
                          OFFSET 0.000340735 -3.80005 -0.000162978
                          CHANNELS 6 Xposition Yposition Zposition Zrotation Xrotation Yrotation
                          JOINT RightHandRing3
                          {
                            OFFSET -0.000645977 -3.40013 0.000750257
                            CHANNELS 6 Xposition Yposition Zposition Zrotation Xrotation Yrotation
                            End Site
                            {
                              OFFSET -0.00243683 -2.59952 0.00211086
                            }
                          }
                        }
                      }
                    }
                    JOINT RightHandPinky
                    {
                      OFFSET 0.753314 -1.75187 -1.85373
                      CHANNELS 6 Xposition Yposition Zposition Zrotation Xrotation Yrotation
                      JOINT RightHandPinky1
                      {
                        OFFSET -0.000145438 -7.15 -0.999672
                        CHANNELS 6 Xposition Yposition Zposition Zrotation Xrotation Yrotation
                        JOINT RightHandPinky2
                        {
                          OFFSET -0.0094426 -3.00079 0.00248366
                          CHANNELS 6 Xposition Yposition Zposition Zrotation Xrotation Yrotation
                          JOINT RightHandPinky3
                          {
                            OFFSET -0.00078075 -2.34837 0.000486628
                            CHANNELS 6 Xposition Yposition Zposition Zrotation Xrotation Yrotation
                            End Site
                            {
                              OFFSET 1.58593e-05 -2.09997 -6.89894e-05
                            }
                          }
                        }
                      }
                    }
                  }
                }
              }
            }
          }
        }
      }
    }
  }
  JOINT LeftUpLeg
  {
    OFFSET 8.00001 0 8.09274e-05
    CHANNELS 6 Xposition Yposition Zposition Zrotation Xrotation Yrotation
    JOINT LeftLeg
    {
      OFFSET -0.00190671 -44.9984 -1.00215
      CHANNELS 6 Xposition Yposition Zposition Zrotation Xrotation Yrotation
      JOINT LeftFoot
      {
        OFFSET -0.00122103 -40.9997 -1.99997
        CHANNELS 6 Xposition Yposition Zposition Zrotation Xrotation Yrotation
        JOINT LeftToeBase
        {
          OFFSET -0.00192919 -7.49994 12.5026
          CHANNELS 6 Xposition Yposition Zposition Zrotation Xrotation Yrotation
          JOINT LeftFootToe
          {
            OFFSET 0 0 4
            CHANNELS 6 Xposition Yposition Zposition Zrotation Xrotation Yrotation
            End Site
            {
              OFFSET 0 0 0
            }
          }
        }
      }
    }
  }
  JOINT RightUpLeg
  {
    OFFSET -8.00001 0 -8.09274e-05
    CHANNELS 6 Xposition Yposition Zposition Zrotation Xrotation Yrotation
    JOINT RightLeg
    {
      OFFSET -0.00025856 -45.0001 -0.999666
      CHANNELS 6 Xposition Yposition Zposition Zrotation Xrotation Yrotation
      JOINT RightFoot
      {
        OFFSET 0.00935712 -41.0233 -1.99693
        CHANNELS 6 Xposition Yposition Zposition Zrotation Xrotation Yrotation
        JOINT RightToeBase
        {
          OFFSET -0.000583239 -7.49988 12.5009
          CHANNELS 6 Xposition Yposition Zposition Zrotation Xrotation Yrotation
          JOINT RightFootToe
          {
            OFFSET 0 0 4
            CHANNELS 6 Xposition Yposition Zposition Zrotation Xrotation Yrotation
            End Site
            {
              OFFSET 0 0 0
            }
          }
        }
      }
    }
  }
}
MOTION
Frames:	3
Frame Time:	0.0111111
-377.262 77.4897 1553.25 0.0560213 0.555302 162.722 5.68434e-14 8 0 7.65333 13.4148 -1.22572 0 8 -2.27374e-13 1.88629 7.22456 2.08276 0 8 4.54747e-13 0.975204 3.60788 1.07039 0 8 2.27374e-13 0.973059 3.59953 1.0679 1.13687e-13 17 2.27374e-13 6.22009 -1.60365 -5.88563 2.27374e-13 10.8 0 14.2443 -4.75472 -13.4708 5 17 2.27374e-13 -0.408788 -3.20758 -5.66313 6.45 0 0 -0.580605 0.257425 1.03984 6.45 0 0 29.7212 -8.58456 30.7509 0 -32.4 -2 -51.8917 -57.4908 -47.8999 -1.13687e-13 -25.65 2 37.2524 -11.3713 1.11872 -0.5 -1.5 2.65 -22.2341 -30.2128 30.7695 -5.68434e-14 -3.8 3.7 4.68076 9.6107 2.96449 1.7053e-13 -3 2.7 0.0233111 1.84408 -0.0365411 2.27374e-13 -1.9 1.6 3.34648e-06 6.37379e-06 -2.40681e-06 0 -8.3 1.9 -54.992 23.2599 13.7348 2.27374e-13 -4.5 0 -54.8089 -0.00622756 -0.0144514 2.27374e-13 -3.4 -2.27374e-13 -38.1424 0.0034738 -0.00938977 -0.25 -2.2 0.4 3.34648e-06 6.37379e-06 -2.40681e-06 2.27374e-13 -8.3 1 -61.2934 19.8803 14.9421 0 -4.65 0 -88.8601 -0.0177763 -0.00273832 0 -3.3 2.27374e-13 -90.0002 -1.77841e-05 -2.57872e-05 -0.5 -2.15 -0.8 3.34648e-06 6.37379e-06 -2.40681e-06 -2.27374e-13 -7.75 -0.2 -62.1513 18.1754 15.2057 1.13687e-13 -3.8 0 -40.3144 -0.0437566 0.0566196 0 -3.4 -2.27374e-13 -79.6 -0.0233692 -0.00436277 -0.75 -1.75 -1.85 3.34648e-06 6.37379e-06 -2.40681e-06 -3.41061e-13 -7.15 -1 -50.5769 23.157 15.1379 -1.13687e-13 -3 0 -28.3785 -0.000928956 0.00857104 1.13687e-13 -2.35 0 -21.0604 0.0325911 -0.00061176 -5 17 2.27374e-13 11.813 -0.00673471 -0.255731 -6.45 0 0 -0.721699 -1.28856 -1.78206 -6.45 0 0 -67.1778 1.57302 -9.75199 -1.13687e-13 -32.4 -2 -111.261 -86.8868 -106.5 2.84217e-14 -25.65 2 -3.57207 -4.28408 20.3398 0.5 -1.5 2.65 10.5942 70.4198 -66.4078 0 -3.8 3.7 -0.336946 -0.522678 -0.441122 0 -3 2.7 0.0392129 64.8933 0.0913709 5.68434e-14 -1.9 1.6 -3.66751e-06 1.1005e-05 -6.4454e-06 2.84217e-14 -8.3 1.9 0.0084237 -0.579868 0.0093157 0 -4.5 0 4.13608 0.880481 0.00980166 4.83169e-13 -3.4 0 4.07981 -0.00454931 0.00390483 0.25 -2.2 0.4 -3.66751e-06 1.1005e-05 -6.4454e-06 -8.52651e-14 -8.3 1 2.67078 -0.562685 -0.0306939 -2.84217e-14 -4.65 0 0.0708262 0.0523289 0.00757411 0 -3.3 -1.13687e-13 0.000217657 -0.00471118 -0.00428918 0.5 -2.15 -0.8 -3.66751e-06 1.1005e-05 -6.4454e-06 5.68434e-14 -7.75 -0.2 7.53028 -0.472822 -0.0986985 2.27374e-13 -3.8 -5.68434e-14 14.4873 13.4547 1.41533 2.27374e-13 -3.4 -1.13687e-13 19.9003 0.0120397 -0.0861405 0.75 -1.75 -1.85 -3.66751e-06 1.1005e-05 -6.4454e-06 5.68434e-14 -7.15 -1 9.72124 0.00883394 -0.156825 0 -3 0 34.8733 39.5895 11.0997 0 -2.35 2.27374e-13 46.6823 0.00734604 0.00920554 8 -1.42109e-14 2.27374e-13 25.8192 -45.845 21.3415 0 -45 -1 -47.84 34.0324 23.2801 -5.68434e-14 -41 -2 28.6339 8.36766 -3.25078 -2.84217e-13 -7.5 12.5 -0.000251552 1.09897e-05 0.109115 5.68434e-14 0 4 6.88531 -12.2763 83.8033 -8 -1.42109e-14 0 -23.6969 -39.7333 -37.8188 0 -45 -1 -62.6421 22.5545 59.2701 0 -41 -2 66.6208 -3.14388 18.0376 0 -7.5 12.5 -2.62646e-05 -2.62575e-05 5.55341e-06 0 -1.42109e-14 4 -37.111 -18.3086 124.741 
-377.136 77.5349 1553.28 0.0426436 0.551285 162.656 0 8 0 7.76019 13.4691 -1.2907 -5.68434e-14 8 -2.27374e-13 1.86119 7.25032 2.10206 -5.68434e-14 8 0 0.962932 3.62073 1.07974 -5.68434e-14 8 2.27374e-13 0.960591 3.61275 1.07819 0 17 0 6.22855 -1.62804 -5.82366 3.41061e-13 10.8 0 14.2647 -4.80215 -13.3214 5 17 0 -0.461017 -3.20455 -5.61259 6.45 0 2.27374e-13 -0.590613 0.259749 1.05482 6.45 -1.13687e-13 0 29.9131 -8.91403 30.7167 5.68434e-14 -32.4 -2 -51.1662 -57.1877 -46.9721 -5.68434e-14 -25.65 2 36.9477 -11.4093 1.64944 -0.5 -1.5 2.65 -21.9303 -30.6451 30.8561 -5.68434e-14 -3.8 3.7 4.88031 10.0691 3.04373 5.68434e-14 -3 2.7 0.023756 2.54107 -0.0365582 3.41061e-13 -1.9 1.6 3.34648e-06 6.37379e-06 -2.40681e-06 0 -8.3 1.9 -58.483 22.6835 14.479 1.7053e-13 -4.5 2.27374e-13 -52.4931 -0.024098 -0.0201016 2.27374e-13 -3.4 0 -36.4602 -0.00524032 -0.0192204 -0.25 -2.2 0.4 3.34648e-06 6.37379e-06 -2.40681e-06 2.27374e-13 -8.3 1 -64.3085 19.1137 15.4684 0 -4.65 0 -88.3026 -0.0177763 -0.00273832 0 -3.3 0 -90.0002 -1.77841e-05 -2.57872e-05 -0.5 -2.15 -0.8 3.34648e-06 6.37379e-06 -2.40681e-06 -2.27374e-13 -7.75 -0.2 -64.8441 17.3391 15.6147 1.13687e-13 -3.8 0 -38.0649 -0.0448018 0.0424641 -2.27374e-13 -3.4 -1.13687e-13 -78.7653 -0.0184526 -0.00436277 -0.75 -1.75 -1.85 3.34648e-06 6.37379e-06 -2.40681e-06 -2.27374e-13 -7.15 -1 -53.8718 22.3371 15.951 -5.68434e-14 -3 0 -28.1298 0.0010489 0.00857104 0 -2.35 -2.27374e-13 -20.909 0.036531 0.00218607 -5 17 0 11.6705 0.0137012 -0.346495 -6.45 -1.13687e-13 -4.54747e-13 -0.744932 -1.29042 -1.82284 -6.45 0 -2.27374e-13 -67.1604 1.17916 -9.57972 -8.52651e-14 -32.4 -2 -113.559 -86.8451 -108.741 -2.84217e-14 -25.65 2 -3.76012 -4.0825 20.8308 0.5 -1.5 2.65 11.3304 70.4421 -67.3918 -4.54747e-13 -3.8 3.7 -0.336946 -0.522678 -0.441122 0 -3 2.7 0.0394116 64.8403 0.091191 8.52651e-14 -1.9 1.6 -3.66751e-06 1.1005e-05 -6.4454e-06 5.68434e-14 -8.3 1.9 0.00842804 -0.60655 0.00931574 0 -4.5 0 4.18591 0.89084 0.00980169 4.54747e-13 -3.4 -5.68434e-14 4.12592 -0.00454931 0.00390483 0.25 -2.2 0.4 -3.66751e-06 1.1005e-05 -6.4454e-06 -5.68434e-14 -8.3 1 2.74559 -0.592337 -0.0306941 0 -4.65 5.68434e-14 0.0708262 0.0523289 0.00757411 0 -3.3 0 0.000217657 -0.00471118 -0.00428918 0.5 -2.15 -0.8 -3.66751e-06 1.1005e-05 -6.4454e-06 5.68434e-14 -7.75 -0.2 7.72194 -0.502575 -0.100815 2.84217e-13 -3.8 0 14.3326 13.2845 1.37906 1.13687e-13 -3.4 0 19.7097 0.0120397 -0.0861405 0.75 -1.75 -1.85 -3.66751e-06 1.1005e-05 -6.4454e-06 8.52651e-14 -7.15 -1 9.96389 -0.00206894 -0.163018 0 -3 -1.13687e-13 34.9164 39.247 10.8452 0 -2.35 0 46.3333 0.00734604 0.00920554 8 -2.84217e-14 0 25.9534 -45.756 21.4811 5.68434e-14 -45 -1 -47.752 34.0098 23.2763 5.68434e-14 -41 -2 28.6205 8.49342 -3.45515 -2.84217e-13 -7.5 12.5 -0.000251552 1.09897e-05 0.109115 0 -7.10543e-15 4 6.88658 -12.4267 83.8106 -8 0 0 -23.6466 -39.9072 -37.8537 -2.27374e-13 -45 -1 -62.7417 22.5771 59.4724 -5.68434e-14 -41 -2 66.7442 -3.2145 17.9076 -5.68434e-14 -7.5 12.5 -2.62646e-05 -2.62575e-05 5.55341e-06 -5.68434e-14 0 4 -37.304 -18.3967 124.648 
-377.011 77.5801 1553.32 0.0292568 0.547269 162.589 5.68434e-14 8 2.27374e-13 7.86717 13.5234 -1.35572 -5.68434e-14 8 -2.27374e-13 1.83608 7.27609 2.12137 5.68434e-14 8 2.27374e-13 0.950656 3.63358 1.08908 0 8 0 0.948863 3.62563 1.08721 0 17 0 6.23706 -1.65243 -5.7617 2.84217e-13 10.8 0 14.2853 -4.84959 -13.172 5 17 -2.27374e-13 -0.513253 -3.20151 -5.56205 6.45 1.13687e-13 0 -0.601803 0.260924 1.06969 6.45 -1.13687e-13 0 30.1047 -9.24382 30.6836 -5.68434e-14 -32.4 -2 -50.4591 -56.8752 -46.0613 0 -25.65 2 36.6437 -11.4464 2.1803 -0.5 -1.5 2.65 -21.6249 -31.0772 30.9455 -5.68434e-14 -3.8 3.7 5.07857 10.5274 3.12339 1.13687e-13 -3 2.7 0.0242014 3.23807 -0.0365806 1.13687e-13 -1.9 1.6 3.34648e-06 6.37379e-06 -2.40681e-06 0 -8.3 1.9 -61.9588 22.1066 15.2185 1.13687e-13 -4.5 0 -50.1774 -0.0419684 -0.0257518 0 -3.4 0 -34.7781 -0.0139544 -0.0290511 -0.25 -2.2 0.4 3.34648e-06 6.37379e-06 -2.40681e-06 2.27374e-13 -8.3 1 -67.3092 18.349 15.9927 0 -4.65 2.27374e-13 -87.745 -0.0177763 -0.00273832 0 -3.3 2.27374e-13 -90.0002 -1.77841e-05 -2.57872e-05 -0.5 -2.15 -0.8 3.34648e-06 6.37379e-06 -2.40681e-06 -1.13687e-13 -7.75 -0.2 -67.5247 16.505 16.0235 0 -3.8 1.13687e-13 -35.8153 -0.0458469 0.0283086 -2.27374e-13 -3.4 -2.27374e-13 -77.9307 -0.0135359 -0.00436277 -0.75 -1.75 -1.85 3.34648e-06 6.37379e-06 -2.40681e-06 -2.27374e-13 -7.15 -1 -57.143 21.5185 16.7578 -1.13687e-13 -3 0 -27.881 0.00302676 0.00857104 -2.27374e-13 -2.35 0 -20.7577 0.0404708 0.00498391 -5 17 0 11.528 0.0341367 -0.437259 -6.45 0 -4.54747e-13 -0.764702 -1.2927 -1.85542 -6.45 0 0 -67.1407 0.784892 -9.40797 -5.68434e-14 -32.4 -2 -115.796 -86.7987 -110.921 0 -25.65 2 -3.9515 -3.88185 21.3218 0.5 -1.5 2.65 12.0687 70.4583 -68.3772 -2.27374e-13 -3.8 3.7 -0.336946 -0.522678 -0.441122 0 -3 2.7 0.0396094 64.7874 0.091012 5.68434e-14 -1.9 1.6 -3.66751e-06 1.1005e-05 -6.4454e-06 8.52651e-14 -8.3 1.9 0.00843238 -0.633232 0.00931579 0 -4.5 0 4.23574 0.9012 0.00980172 4.54747e-13 -3.4 -5.68434e-14 4.17204 -0.00454931 0.00390483 0.25 -2.2 0.4 -3.66751e-06 1.1005e-05 -6.4454e-06 -5.68434e-14 -8.3 1 2.8204 -0.621988 -0.0306942 -2.84217e-14 -4.65 5.68434e-14 0.0708262 0.0523289 0.00757411 0 -3.3 0 0.000217657 -0.00471118 -0.00428918 0.5 -2.15 -0.8 -3.66751e-06 1.1005e-05 -6.4454e-06 8.52651e-14 -7.75 -0.2 7.91359 -0.532329 -0.102931 2.27374e-13 -3.8 0 14.1777 13.1143 1.34285 0 -3.4 0 19.5191 0.0120397 -0.0861405 0.75 -1.75 -1.85 -3.66751e-06 1.1005e-05 -6.4454e-06 5.68434e-14 -7.15 -1 10.2065 -0.0129718 -0.169211 0 -3 -5.68434e-14 34.9556 38.9036 10.5935 0 -2.35 1.13687e-13 45.9842 0.00734604 0.00920554 8 0 2.27374e-13 26.0871 -45.667 21.6204 0 -45 -1 -47.664 33.9872 23.2726 0 -41 -2 28.6081 8.61902 -3.65967 -2.27374e-13 -7.5 12.5 -0.000251552 1.09897e-05 0.109115 0 0 4 6.88566 -12.5822 83.8057 -8 -1.42109e-14 0 -23.5967 -40.0811 -37.8891 0 -45 -1 -62.8416 22.5986 59.6745 0 -41 -2 66.8673 -3.2852 17.7776 0 -7.5 12.5 -2.62646e-05 -2.62575e-05 5.55341e-06 0 0 4 -37.4884 -18.4602 124.558 
